<?xml version="1.0" standalone="no"?>
<!DOCTYPE svg PUBLIC "-//W3C//DTD SVG 20010904//EN"
 "http://www.w3.org/TR/2001/REC-SVG-20010904/DTD/svg10.dtd">
<svg version="1.0" xmlns="http://www.w3.org/2000/svg"
 width="512.000000pt" height="512.000000pt" viewBox="0 0 512.000000 512.000000"
 preserveAspectRatio="xMidYMid meet">

<g transform="translate(0.000000,512.000000) scale(0.100000,-0.100000)"
fill="#000000" stroke="none">
<path d="M2455 4870 c-320 -49 -574 -275 -677 -600 -19 -63 -23 -96 -22 -200
0 -110 3 -135 28 -205 15 -44 38 -99 51 -122 l24 -43 -874 0 c-519 0 -876 -4
-879 -9 -6 -10 81 -133 1189 -1686 1151 -1614 1256 -1760 1265 -1760 5 0 433
594 951 1320 1448 2028 1510 2116 1503 2126 -3 5 -359 9 -879 9 l-874 0 24 43
c13 23 36 78 51 122 25 72 28 94 28 210 0 116 -3 138 -28 210 -122 351 -394
568 -738 589 -46 3 -110 1 -143 -4z m300 -50 c226 -58 403 -214 516 -454 93
-199 88 -416 -13 -608 l-31 -58 -178 0 -179 0 30 46 c51 81 65 137 65 259 0
101 -2 114 -28 165 -71 139 -199 210 -376 210 -147 0 -263 -51 -343 -150 -91
-114 -91 -337 1 -482 l31 -48 -180 0 -179 0 -35 73 c-101 205 -100 399 4 613
124 255 330 412 595 453 79 13 209 4 300 -19z m-51 -490 c88 -28 161 -87 201
-165 28 -55 30 -66 30 -169 0 -100 -3 -117 -28 -171 -15 -32 -39 -74 -53 -92
l-25 -33 -269 0 -269 0 -25 33 c-103 135 -115 352 -27 474 90 124 290 177 465
123z m-1764 -765 l0 -105 -205 0 c-158 0 -205 -3 -205 -13 0 -6 63 -89 140
-182 77 -94 140 -173 140 -176 0 -8 -150 -143 -154 -138 -24 31 -506 711 -506
714 0 3 178 5 395 5 l395 0 0 -105z m960 -105 l0 -211 -342 1 c-442 1 -438 1
-438 -8 0 -4 68 -86 150 -182 l151 -174 -125 -126 -125 -125 111 -120 c61 -66
158 -170 215 -232 l104 -112 -96 -123 c-53 -68 -100 -124 -104 -126 -4 -1
-168 223 -365 498 -266 373 -355 504 -347 514 6 7 44 41 86 76 41 36 75 68 75
73 0 5 -61 83 -135 173 -74 91 -135 167 -135 169 0 3 88 5 195 5 l195 0 0 120
0 120 465 0 465 0 0 -210z m330 -30 l0 -239 133 -3 132 -3 -69 -13 c-132 -25
-253 -88 -406 -212 -99 -80 -127 -90 -270 -105 -148 -16 -192 -31 -220 -77
-24 -40 -27 -124 -5 -155 13 -18 13 -22 0 -33 -10 -8 -15 -31 -15 -71 0 -109
29 -134 145 -123 40 4 108 3 150 -1 l78 -7 71 -67 c88 -82 152 -129 236 -171
36 -19 67 -35 69 -37 3 -2 -5 -10 -17 -19 -43 -30 -52 -64 -52 -203 0 -71 -4
-132 -8 -135 -5 -3 -44 31 -87 75 l-80 79 -247 0 c-137 0 -248 3 -248 8 0 4
43 61 96 127 53 66 98 123 100 127 4 6 -134 171 -374 451 -15 17 -7 26 106
140 67 67 122 129 122 137 0 9 -68 83 -150 165 l-150 150 327 5 328 5 3 223 2
222 150 0 150 0 0 -240z m72 33 l3 -208 255 0 255 0 3 208 c2 199 3 207 22
207 19 0 20 -7 20 -225 l0 -225 -300 0 -300 0 0 225 c0 218 1 225 20 225 19 0
20 -8 22 -207z m488 12 l0 -195 -230 0 -230 0 0 195 0 195 230 0 230 0 0 -195z
m390 -24 c0 -190 2 -220 16 -225 9 -3 157 -6 330 -6 173 0 314 -3 314 -7 0 -4
-68 -76 -152 -160 l-151 -152 80 -88 c45 -48 100 -106 122 -128 23 -21 41 -43
41 -47 0 -5 -84 -107 -186 -226 -102 -119 -188 -223 -191 -229 -3 -7 41 -70
97 -140 l102 -128 -254 -5 -254 -5 -66 -33 c-73 -36 -106 -72 -115 -126 -5
-33 -27 -54 -38 -37 -14 23 -35 147 -41 236 -3 55 -9 111 -14 125 -7 24 -4 27
39 44 89 36 203 112 291 192 l88 82 77 7 c43 4 110 5 150 1 116 -11 145 14
145 123 0 40 -5 63 -15 71 -13 11 -13 15 0 33 22 31 19 115 -5 155 -28 46 -72
61 -220 77 -143 15 -171 25 -270 105 -153 124 -274 187 -406 212 l-69 13 133
3 132 3 0 233 c0 128 3 236 7 239 3 4 69 7 145 7 l138 0 0 -219z m970 99 l0
-120 195 0 c107 0 195 -2 195 -5 0 -3 -61 -79 -136 -170 -75 -91 -134 -169
-132 -173 1 -5 40 -41 86 -81 45 -40 82 -75 82 -78 0 -2 -117 -168 -260 -369
l-261 -364 -189 0 c-105 0 -190 3 -190 6 0 3 90 102 200 219 110 118 200 218
200 222 0 4 -55 63 -122 130 l-121 121 146 171 c81 94 147 175 147 181 0 5
-21 10 -47 10 -27 0 -201 2 -388 3 l-340 2 -3 208 -2 207 470 0 470 0 0 -120z
m820 116 c0 -3 -114 -165 -254 -361 l-254 -356 -76 67 c-42 36 -76 69 -76 73
0 3 63 82 140 175 77 94 140 176 140 183 0 10 -43 13 -205 13 l-205 0 0 105 0
105 395 0 c217 0 395 -2 395 -4z m-3586 -608 l156 -163 -127 -127 c-118 -118
-126 -128 -112 -145 9 -10 98 -114 198 -231 116 -135 179 -217 175 -225 -4 -6
-52 -67 -106 -134 -53 -67 -99 -127 -100 -135 -2 -10 49 -14 267 -18 l270 -5
-287 -3 c-185 -1 -289 2 -293 8 -4 6 41 71 99 144 58 74 106 140 106 148 0 7
-95 114 -210 238 l-209 225 125 125 124 126 -140 162 c-77 90 -140 165 -140
168 0 2 11 4 24 4 18 0 63 -40 180 -162z m2504 100 c-173 -201 -228 -267 -228
-276 0 -6 54 -61 120 -123 66 -62 120 -116 120 -120 0 -5 -95 -110 -211 -234
-116 -124 -209 -231 -206 -238 3 -7 52 -73 110 -147 58 -74 103 -138 101 -142
-3 -4 -96 -7 -207 -6 l-202 2 175 3 c96 2 179 8 184 13 8 8 -24 52 -180 246
l-33 40 194 227 c107 125 195 231 195 236 0 6 -55 67 -122 136 l-122 126 160
160 c116 116 165 159 183 159 21 0 19 -5 -31 -62z m-1156 -27 c119 -31 202
-79 391 -226 70 -54 125 -71 268 -84 155 -13 189 -37 189 -131 0 -66 -10 -70
-191 -70 -190 0 -189 -1 -310 114 -149 142 -319 238 -454 257 -177 25 -382
-65 -584 -257 -121 -115 -120 -114 -310 -114 -181 0 -191 4 -191 70 0 94 34
118 189 131 143 13 198 30 268 84 186 145 272 195 387 225 98 26 249 26 348 1z
m-23 -226 c233 -127 225 -459 -14 -575 -41 -19 -66 -24 -135 -24 -79 -1 -89 2
-150 35 -248 136 -219 486 49 586 23 8 66 12 116 10 66 -3 90 -8 134 -32z
m-788 -325 c23 -6 77 -46 147 -109 181 -160 270 -210 414 -230 141 -20 280 12
401 93 30 20 106 82 168 136 70 62 128 104 149 110 39 11 311 12 350 1 23 -6
25 -12 28 -67 4 -87 1 -89 -177 -89 -167 -1 -187 -7 -243 -69 -83 -95 -245
-196 -388 -242 -74 -23 -102 -27 -210 -27 -114 0 -133 2 -220 31 -52 17 -126
50 -165 72 -83 49 -199 141 -222 177 -31 47 -74 57 -235 58 -177 2 -180 3
-176 89 3 55 5 61 28 67 39 11 311 10 351 -1z m1969 -426 c0 -8 -172 -246
-175 -242 -1 2 -43 56 -93 120 -51 65 -92 120 -92 123 0 3 81 5 180 5 99 0
180 -3 180 -6z m-1525 -75 l43 -11 7 -64 c7 -66 2 -160 -16 -294 -14 -105 -15
-106 -45 -71 -22 27 -25 38 -21 79 3 26 10 96 16 156 8 75 17 116 28 128 15
17 15 18 0 18 -23 0 -34 -26 -41 -95 -4 -33 -12 -99 -18 -147 l-12 -87 -27 15
c-16 8 -36 14 -46 14 -17 0 -18 10 -15 143 3 156 12 191 51 212 32 17 41 18
96 4z m429 -15 c3 -9 6 -41 6 -72 0 -31 7 -102 15 -156 8 -55 14 -100 13 -101
-2 -1 -25 -10 -52 -19 -35 -14 -56 -30 -79 -63 -26 -37 -33 -41 -39 -26 -14
36 -7 60 22 86 l30 27 0 128 c0 93 -4 135 -15 156 -19 36 -20 34 18 45 49 14
74 13 81 -5z m-234 -14 l45 0 1 -157 c0 -170 12 -255 48 -345 l23 -57 -58 -57
-58 -57 -78 74 c-88 84 -85 70 -58 229 10 61 18 163 19 243 l1 139 35 -6 c19
-3 55 -6 80 -6z m110 -22 c17 -28 20 -51 20 -159 0 -122 -1 -127 -24 -142
l-23 -16 -7 61 c-10 100 -3 288 11 288 2 0 12 -15 23 -32z m598 -177 c169 -86
178 -327 17 -468 -27 -24 -74 -55 -102 -69 -46 -23 -63 -26 -131 -23 -62 3
-90 10 -142 36 -84 41 -168 117 -204 182 -29 55 -30 80 -1 116 9 11 14 15 11
9 -3 -6 1 -34 9 -62 12 -40 27 -61 65 -94 49 -42 166 -118 182 -118 22 0 0 19
-68 60 -88 52 -148 113 -162 163 -18 66 5 111 65 123 29 6 32 3 57 -43 36 -66
134 -149 186 -158 22 -4 53 -4 70 0 72 16 125 120 96 189 -15 37 -50 66 -79
66 -28 0 -93 -68 -79 -82 8 -8 19 -3 41 20 16 18 31 32 34 32 42 0 72 -56 57
-108 -20 -77 -99 -112 -170 -75 -46 24 -71 71 -77 146 -5 57 -3 65 22 95 70
83 208 111 303 63z m-1163 -74 l69 -64 -18 -41 c-10 -23 -52 -73 -92 -113
-109 -105 -124 -125 -124 -166 0 -29 8 -44 39 -73 61 -58 131 -61 235 -8 51
26 128 98 152 143 10 19 22 34 26 33 3 -2 38 -34 77 -71 l71 -69 0 -134 0
-134 -274 0 -274 0 -248 348 c-136 191 -259 362 -272 380 l-24 32 294 0 294 0
69 -63z m1489 -44 c-177 -249 -216 -303 -218 -303 -2 0 8 22 22 50 48 97 40
234 -19 318 l-30 42 160 0 161 0 -76 -107z m-1325 -47 c45 -24 101 -92 101
-124 -1 -35 -30 -98 -65 -140 -60 -71 -179 -129 -242 -117 -49 9 -93 50 -93
88 0 26 16 46 98 127 57 56 105 114 116 138 21 46 38 52 85 28z m651 -37 c0
-6 -4 -7 -10 -4 -5 3 -10 11 -10 16 0 6 5 7 10 4 6 -3 10 -11 10 -16z m-160
-253 c40 -37 96 -78 136 -97 63 -31 76 -34 164 -34 115 0 160 18 253 104 50
45 57 49 36 21 -14 -19 -69 -97 -123 -172 l-98 -138 -274 0 -274 0 0 137 0
137 52 53 c29 29 54 53 56 53 3 0 35 -29 72 -64z m338 -354 c-6 -16 -533 -752
-538 -752 -5 0 -532 736 -538 752 -2 4 240 8 538 8 298 0 540 -4 538 -8z"/>
<path d="M2502 4772 c-13 -4 -23 -11 -24 -15 -1 -18 55 -136 63 -132 5 3 -3
31 -16 62 -14 31 -23 59 -19 62 11 12 209 13 268 1 34 -6 81 -22 105 -36 50
-27 51 -28 51 -13 0 5 -30 24 -67 41 -63 30 -74 32 -202 34 -75 2 -146 0 -159
-4z"/>
<path d="M2110 4653 c0 -5 33 -17 73 -27 41 -9 84 -24 96 -33 23 -15 38 -12
27 6 -15 24 -196 74 -196 54z"/>
<path d="M2980 4634 c0 -4 33 -41 73 -83 176 -185 220 -315 185 -548 -13 -90
-44 -133 -96 -133 -44 0 -92 53 -92 101 0 56 -46 226 -75 275 -34 57 -114 120
-220 172 -90 45 -95 46 -95 34 0 -5 38 -28 84 -50 100 -50 176 -108 211 -160
14 -21 37 -83 51 -138 34 -133 30 -217 -15 -309 -18 -37 -30 -69 -27 -72 9 -9
65 89 72 126 10 52 12 54 46 26 32 -27 85 -34 106 -13 23 23 22 0 -1 -66 -14
-36 -21 -69 -17 -71 11 -7 46 88 73 195 15 63 21 118 21 215 1 127 0 132 -32
200 -39 81 -92 155 -176 243 -54 57 -76 73 -76 56z"/>
<path d="M2458 4590 c-60 -11 -142 -37 -190 -61 -21 -11 -53 -19 -73 -19 -20
0 -53 -9 -74 -20 -109 -55 -231 -286 -231 -436 0 -62 23 -144 41 -144 12 0 12
1 -6 43 -46 110 18 327 137 461 49 57 84 76 138 76 23 0 61 10 88 24 115 58
262 79 375 52 172 -40 397 -203 456 -330 27 -58 51 -177 51 -252 0 -34 4 -54
12 -54 17 0 3 172 -21 250 -11 36 -35 87 -52 114 -65 97 -259 236 -389 277
-74 23 -192 32 -262 19z"/>
<path d="M2207 4399 c-48 -34 -70 -59 -52 -59 6 0 135 91 135 96 0 14 -34 -1
-83 -37z"/>
<path d="M2020 4187 c-36 -73 -60 -156 -60 -210 0 -52 33 -140 77 -207 44 -66
57 -52 13 16 -40 64 -70 146 -70 193 0 49 25 131 61 203 32 63 33 68 20 68 -6
0 -24 -28 -41 -63z"/>
<path d="M2065 3840 c-15 -30 -4 -44 13 -15 6 12 18 0 51 -52 24 -38 46 -63
48 -57 2 7 -14 40 -37 74 -22 35 -40 67 -40 72 0 19 -21 6 -35 -22z"/>
<path d="M1010 3622 c0 -5 27 -19 59 -31 67 -24 82 -40 172 -178 33 -51 64
-95 70 -99 26 -16 16 10 -33 79 -29 41 -66 97 -83 124 -21 34 -45 56 -80 74
-56 30 -105 44 -105 31z"/>
<path d="M1686 3585 c-48 -17 -90 -47 -93 -66 -3 -17 193 -227 202 -217 4 4
-36 54 -89 110 l-96 103 25 22 c33 29 86 43 167 43 37 0 70 5 73 10 10 15
-144 11 -189 -5z"/>
<path d="M1881 3169 c1 -18 157 -141 164 -129 5 8 -46 53 -127 114 -25 18 -38
23 -37 15z"/>
<path d="M2450 3643 c0 -5 36 -38 79 -72 44 -34 112 -96 150 -136 39 -41 73
-70 76 -65 8 13 -114 139 -206 212 -85 66 -99 75 -99 61z"/>
<path d="M2680 3644 c0 -16 58 -94 70 -94 14 0 0 25 -39 70 -17 19 -30 30 -31
24z"/>
<path d="M2937 3403 c-8 -7 43 -62 310 -335 101 -104 190 -188 198 -188 8 0
-35 48 -94 108 -59 59 -175 178 -258 265 -82 86 -152 154 -156 150z"/>
<path d="M2910 3173 c0 -5 27 -35 60 -68 66 -65 97 -69 34 -4 -45 47 -94 84
-94 72z"/>
<path d="M2936 2102 c-6 -10 101 -117 147 -147 15 -10 31 -14 35 -10 4 4 -4
14 -18 23 -14 9 -55 45 -91 80 -37 35 -70 59 -73 54z"/>
<path d="M3860 2494 c1 -10 121 -101 145 -110 34 -13 10 14 -51 59 -68 51 -94
65 -94 51z"/>
<path d="M3755 2280 c33 -33 66 -60 74 -60 9 0 -11 26 -44 60 -33 33 -66 60
-74 60 -9 0 11 -26 44 -60z"/>
<path d="M2740 3043 c0 -5 29 -28 63 -53 34 -25 115 -87 181 -137 110 -86 143
-107 134 -84 -1 5 -32 31 -68 58 -36 27 -116 88 -179 136 -107 82 -131 97
-131 80z"/>
<path d="M2309 3006 c-68 -28 -103 -51 -194 -131 -38 -34 -109 -87 -157 -118
l-86 -57 -80 0 c-48 0 -94 6 -115 15 -20 8 -43 15 -51 15 -19 0 -63 -37 -54
-46 5 -4 17 1 28 11 20 18 23 18 68 2 30 -11 77 -17 128 -17 76 0 85 2 130 33
27 19 63 41 79 49 17 9 68 50 115 92 124 110 251 172 299 146 13 -7 21 -7 21
-1 0 13 -33 31 -57 31 -10 0 -43 -11 -74 -24z"/>
<path d="M3220 2759 c0 -6 16 -17 35 -25 40 -16 245 -20 245 -4 0 6 -42 10
-105 10 -70 0 -117 5 -140 14 -20 9 -35 11 -35 5z"/>
<path d="M3182 2698 c9 -28 72 -48 150 -48 94 0 228 19 228 32 0 6 -22 6 -57
1 -32 -4 -106 -8 -164 -8 -88 0 -110 3 -126 18 -23 20 -36 22 -31 5z"/>
<path d="M2478 2910 c-41 -25 -5 -87 57 -100 22 -4 48 -11 58 -15 10 -4 17 -3
17 4 0 14 -42 31 -74 31 -28 0 -61 34 -53 55 7 17 55 20 104 6 31 -9 55 1 34
13 -19 12 -126 16 -143 6z"/>
<path d="M2369 2861 c-31 -25 -19 -38 15 -16 26 17 26 17 26 -13 0 -18 -16
-53 -41 -91 -23 -34 -38 -65 -35 -68 6 -7 17 6 69 81 21 31 27 50 25 81 -4 47
-23 56 -59 26z"/>
<path d="M2650 2862 c105 -71 157 -159 146 -249 -18 -150 -120 -246 -259 -243
-81 2 -85 1 -67 -10 21 -13 115 -12 162 2 55 16 131 87 156 146 44 103 38 193
-18 270 -34 47 -104 102 -129 101 -11 0 -9 -5 9 -17z"/>
<path d="M2485 2740 c-62 -41 -83 -126 -45 -187 56 -92 177 -94 237 -4 41 62
22 152 -42 191 -42 26 -110 26 -150 0z"/>
<path d="M2272 2615 c-15 -32 -15 -65 -2 -65 6 0 10 10 10 23 0 23 16 55 23
47 2 -3 28 -51 57 -108 30 -57 62 -108 72 -113 19 -10 26 5 8 16 -6 4 -31 48
-56 98 -66 132 -89 153 -112 102z"/>
<path d="M2595 2418 c-15 -36 -10 -52 8 -28 7 9 21 14 31 12 14 -3 17 0 12 13
-3 9 -6 21 -6 26 0 23 -32 6 -45 -23z"/>
<path d="M1820 2563 c0 -5 26 -20 57 -34 32 -13 61 -25 65 -27 4 -2 8 1 8 6 0
5 -19 19 -42 30 -59 27 -88 35 -88 25z"/>
<path d="M3335 2541 c-134 -6 -162 -14 -189 -53 -31 -43 -16 -53 18 -13 l34
40 148 6 c169 8 154 6 154 19 0 6 -8 9 -17 8 -10 -1 -76 -4 -148 -7z"/>
<path d="M1560 2523 c0 -6 48 -13 113 -16 124 -7 149 -13 215 -58 48 -33 73
-30 32 3 -59 49 -123 68 -244 75 -75 4 -116 3 -116 -4z"/>
<path d="M3220 2482 c0 -5 19 -14 43 -21 23 -7 50 -15 60 -17 9 -3 17 -1 17 5
0 5 -24 17 -54 25 -63 18 -66 19 -66 8z"/>
<path d="M1970 2421 c0 -16 136 -135 194 -170 119 -71 274 -111 435 -111 110
0 175 16 265 63 67 36 226 180 212 194 -4 4 -20 -7 -34 -25 -41 -53 -143 -129
-228 -169 l-79 -38 -145 0 c-121 0 -158 4 -224 23 -118 34 -226 94 -310 173
-73 69 -86 77 -86 60z"/>
<path d="M3256 1781 c-4 -5 10 -19 29 -31 50 -31 68 -71 63 -140 -6 -78 -42
-146 -101 -190 -57 -42 -42 -55 15 -14 61 44 100 120 106 209 4 72 4 72 -33
114 -43 48 -71 66 -79 52z"/>
<path d="M2277 1526 c-34 -83 -127 -166 -186 -166 -11 0 -23 -4 -26 -10 -11
-18 47 -11 92 11 50 24 103 82 132 145 22 46 26 64 14 64 -5 0 -16 -20 -26
-44z"/>
<path d="M2590 1291 c0 -6 9 -15 21 -21 34 -19 99 -81 99 -96 0 -7 5 -16 10
-19 23 -14 7 37 -22 70 -32 37 -108 83 -108 66z"/>
<path d="M2730 995 c0 -9 19 -35 43 -58 24 -23 54 -61 67 -84 22 -39 40 -55
40 -35 0 19 -71 119 -99 140 -17 12 -31 29 -31 37 0 8 -4 15 -10 15 -5 0 -10
-7 -10 -15z"/>
</g>
</svg>
