<?xml version="1.0" standalone="no"?>
<!DOCTYPE svg PUBLIC "-//W3C//DTD SVG 20010904//EN"
 "http://www.w3.org/TR/2001/REC-SVG-20010904/DTD/svg10.dtd">
<svg version="1.0" xmlns="http://www.w3.org/2000/svg"
 width="544.000000pt" height="544.000000pt" viewBox="0 0 544.000000 544.000000"
 preserveAspectRatio="xMidYMid meet">

<g transform="translate(0.000000,544.000000) scale(0.100000,-0.100000)"
fill="#000000" stroke="none">
<path d="M0 5166 l0 -276 29 0 c16 0 31 4 33 9 2 5 42 12 91 15 83 6 87 6 87
-14 0 -11 -7 -20 -15 -20 -9 0 -12 -6 -8 -15 3 -9 8 -14 10 -11 3 2 17 -9 31
-25 21 -23 36 -30 67 -31 74 -1 75 -1 75 36 0 33 -26 97 -42 104 -14 6 -8 61
8 74 45 37 54 50 54 78 0 17 4 30 9 30 5 0 11 9 14 20 3 11 14 20 25 20 11 0
25 7 32 15 7 8 18 15 25 15 6 0 22 8 33 19 34 29 164 41 380 33 55 -2 62 -4
62 -22 0 -11 5 -20 10 -20 6 0 10 -18 10 -40 0 -38 2 -40 29 -40 16 0 32 6 34
13 4 9 8 9 15 -2 8 -12 19 -7 59 26 90 77 92 80 86 151 l-6 63 -61 31 -61 31
-557 5 -558 5 0 -277z m1060 24 c0 -5 -4 -10 -10 -10 -5 0 -10 5 -10 10 0 6 5
10 10 10 6 0 10 -4 10 -10z"/>
<path d="M1300 5340 c0 -11 -4 -20 -10 -20 -5 0 -10 -11 -10 -25 0 -22 4 -25
40 -25 31 0 40 -4 40 -17 0 -14 2 -14 20 2 27 24 25 31 -10 52 -16 9 -30 25
-30 35 0 11 -7 18 -20 18 -13 0 -20 -7 -20 -20z"/>
<path d="M5271 5224 c0 -11 3 -14 6 -6 3 7 2 16 -1 19 -3 4 -6 -2 -5 -13z"/>
<path d="M5345 5190 c-25 -26 -25 -27 -5 -45 11 -10 17 -22 13 -28 -3 -6 -1
-7 5 -3 7 4 12 2 12 -3 0 -6 5 -11 12 -11 6 0 20 -7 30 -17 10 -9 21 -13 25
-9 4 4 -3 16 -17 26 l-25 20 23 0 c19 0 22 5 22 38 0 34 -3 38 -35 48 -31 10
-37 8 -60 -16z"/>
<path d="M4043 5189 c-8 -8 -6 -16 9 -31 25 -25 32 -19 19 16 -12 30 -13 30
-28 15z"/>
<path d="M3164 5145 c-1 -14 2 -25 7 -25 5 0 9 11 9 25 0 33 -15 33 -16 0z"/>
<path d="M4060 5106 c0 -8 4 -17 9 -20 5 -4 7 3 4 14 -6 23 -13 26 -13 6z"/>
<path d="M4240 5106 c0 -2 9 -6 20 -9 11 -3 18 -1 14 4 -5 9 -34 13 -34 5z"/>
<path d="M3431 5083 c-1 -7 -16 -17 -33 -23 l-33 -10 34 5 c40 6 45 9 38 27
-4 9 -6 9 -6 1z"/>
<path d="M3293 5055 c-3 -9 -13 -15 -22 -13 -9 1 -33 -4 -53 -11 -27 -9 -38
-18 -38 -33 0 -15 4 -18 18 -13 9 5 51 21 92 37 46 17 61 26 40 23 -33 -6 -34
-5 -16 10 18 13 18 15 3 15 -10 0 -20 -7 -24 -15z"/>
<path d="M2960 4980 c-46 -31 -57 -35 -65 -23 -9 12 -14 11 -30 -7 -16 -18
-17 -23 -5 -31 13 -8 13 -10 0 -19 -8 -5 -20 -10 -27 -10 -21 0 -2 -30 24 -36
18 -5 28 -1 40 15 8 12 40 51 70 87 30 35 53 64 51 63 -2 0 -28 -18 -58 -39z"/>
<path d="M4269 4999 c27 -22 49 -26 32 -5 -6 8 -22 16 -34 19 -22 6 -22 6 2
-14z"/>
<path d="M4069 4799 c-3 -107 -1 -144 13 -184 15 -44 17 -46 18 -19 0 16 -5
35 -11 41 -12 12 -2 63 13 63 5 0 12 -9 15 -20 3 -11 9 -17 14 -14 13 8 -9 44
-28 44 -12 0 -10 7 9 33 14 17 32 46 41 63 15 28 15 33 0 54 -17 24 -17 23
-39 -41 l-22 -64 -1 75 c-2 134 -19 111 -22 -31z"/>
<path d="M3220 4835 c-7 -8 -20 -14 -28 -13 -12 2 -16 -6 -18 -29 -1 -18 0
-33 3 -33 2 0 16 14 30 30 13 17 32 30 40 30 8 0 13 5 11 12 -7 19 -24 20 -38
3z"/>
<path d="M3272 4822 c4 -13 -41 -90 -54 -94 -8 -3 -5 -9 9 -16 19 -11 24 -9
33 8 6 11 15 18 21 14 6 -3 7 4 3 20 -4 19 -2 28 11 32 28 11 40 -12 21 -40
-17 -26 -22 -106 -7 -106 5 0 12 17 15 38 11 62 17 74 32 68 8 -3 14 -1 14 4
0 5 7 7 16 3 13 -5 14 -15 8 -57 -7 -52 -10 -80 -12 -130 -2 -21 -6 -27 -17
-22 -20 7 -6 -21 24 -48 21 -19 21 -19 15 11 -6 31 9 53 21 33 5 -8 11 -7 22
2 13 11 15 4 11 -50 -2 -52 0 -62 13 -62 12 0 15 7 11 25 -2 14 0 25 5 25 20
0 53 -33 53 -53 0 -12 11 -34 25 -49 14 -15 25 -32 25 -38 0 -8 6 -8 20 0 19
10 19 13 6 39 -8 15 -22 33 -30 40 -17 14 -21 58 -8 79 5 6 23 23 42 37 29 21
31 25 13 25 -12 0 -23 -6 -26 -12 -2 -7 -7 -10 -11 -7 -16 14 8 39 38 40 28 0
29 1 9 9 -29 12 -29 17 -1 16 16 -1 24 7 31 34 7 30 6 37 -13 52 -12 10 -38
18 -57 18 -42 0 -73 15 -73 36 0 8 -5 12 -11 9 -6 -4 -8 -13 -5 -21 3 -8 -1
-14 -8 -14 -16 0 -26 -21 -26 -58 0 -15 -4 -33 -9 -41 -10 -16 -31 -6 -31 14
0 8 -7 18 -15 23 -26 14 -2 61 35 68 41 9 40 32 -1 26 -24 -4 -30 -2 -24 8 5
8 4 11 -3 6 -11 -6 -62 10 -72 23 -7 10 -90 41 -88 33z m288 -143 c0 -5 5 -7
10 -4 12 7 60 -20 60 -34 0 -5 -13 -11 -29 -14 -35 -7 -55 -56 -53 -127 1 -34
-1 -40 -8 -25 -5 11 -9 35 -9 53 -1 26 -5 32 -22 32 -19 0 -20 4 -14 43 4 23
13 52 21 65 15 23 44 30 44 11z"/>
<path d="M2531 4784 c0 -11 3 -14 6 -6 3 7 2 16 -1 19 -3 4 -6 -2 -5 -13z"/>
<path d="M3986 4785 c3 -11 8 -37 11 -58 7 -45 27 -44 31 2 3 24 0 32 -10 29
-7 -3 -19 7 -26 21 -7 14 -10 17 -6 6z"/>
<path d="M3700 4750 c-11 -8 -7 -9 15 -4 37 8 45 14 19 14 -10 0 -26 -5 -34
-10z"/>
<path d="M4381 4636 c-15 -18 -4 -21 19 -6 8 5 17 5 20 0 3 -5 21 -5 40 0 l35
8 -30 1 c-16 1 -39 4 -51 7 -12 3 -26 -1 -33 -10z"/>
<path d="M4343 4628 c-19 -25 -24 -38 -14 -38 11 0 35 39 28 46 -2 3 -9 -1
-14 -8z"/>
<path d="M4665 4610 c-3 -5 -1 -10 4 -10 6 0 11 5 11 10 0 6 -2 10 -4 10 -3 0
-8 -4 -11 -10z"/>
<path d="M4153 4583 c-16 -6 -17 -45 -1 -61 17 -17 57 -15 64 3 4 8 3 23 -2
33 -7 15 -8 14 -11 -5 -5 -27 -25 -30 -44 -7 -11 14 -10 18 6 30 18 14 12 17
-12 7z"/>
<path d="M3656 4485 c-8 -22 2 -103 19 -153 20 -56 39 -55 102 8 25 24 25 25
4 28 -12 2 -21 10 -21 18 0 8 -7 14 -16 14 -20 0 -42 23 -63 66 -15 30 -19 33
-25 19z"/>
<path d="M1964 4425 c-68 -68 -135 -160 -187 -255 -47 -87 -81 -174 -69 -178
6 -2 -1 -15 -14 -29 -20 -22 -22 -28 -10 -35 19 -11 46 0 46 19 0 12 3 13 14
4 10 -8 16 -9 21 -1 9 15 25 12 25 -5 0 -8 5 -15 11 -15 6 0 8 -9 4 -20 -5
-17 -2 -20 22 -20 21 0 24 3 13 10 -12 8 -11 14 9 40 12 17 21 33 19 34 -1 1
-14 10 -27 19 -24 16 -24 16 28 12 30 -2 58 -10 65 -19 14 -19 96 -7 152 22
43 22 87 74 75 88 -13 15 17 74 43 84 28 10 41 73 27 134 -13 55 -25 64 -61
43 -33 -20 -101 -14 -121 9 -6 8 -14 37 -18 66 l-7 53 -60 -60z m-146 -442
c25 -6 24 -5 16 -27 -8 -20 -24 -21 -24 -1 0 8 -12 22 -27 30 -16 9 -19 13 -8
9 11 -3 30 -9 43 -11z"/>
<path d="M3611 4457 c0 -15 8 -44 19 -64 11 -21 20 -31 20 -22 0 8 -5 20 -11
26 -7 7 -15 29 -19 50 -6 31 -8 33 -9 10z"/>
<path d="M4405 4450 c7 -11 45 -20 45 -10 0 4 -11 10 -25 12 -13 3 -22 2 -20
-2z"/>
<path d="M4470 4430 c0 -6 4 -9 9 -6 4 3 23 1 42 -4 18 -5 37 -6 41 -2 4 4 0
8 -10 8 -9 0 -32 4 -49 8 -23 5 -33 4 -33 -4z"/>
<path d="M4280 4400 c0 -5 7 -10 16 -10 8 0 12 5 9 10 -3 6 -10 10 -16 10 -5
0 -9 -4 -9 -10z"/>
<path d="M4297 4373 c-4 -3 -7 -33 -7 -65 0 -43 4 -58 14 -58 11 0 13 13 9 63
-6 68 -7 70 -16 60z"/>
<path d="M3180 4313 c0 -32 -31 -46 -59 -26 -22 15 -22 14 -19 -13 3 -25 8
-29 36 -32 18 -2 40 2 48 9 16 13 18 47 4 69 -8 12 -10 11 -10 -7z"/>
<path d="M3620 4321 c0 -5 7 -12 16 -15 14 -5 15 -4 4 9 -14 17 -20 19 -20 6z"/>
<path d="M4160 4266 c0 -2 7 -7 16 -10 8 -3 12 -2 9 4 -6 10 -25 14 -25 6z"/>
<path d="M4068 4195 c-3 -11 -9 -29 -13 -40 -3 -11 1 -7 10 8 9 16 15 33 12
40 -2 6 -6 3 -9 -8z"/>
<path d="M4271 4138 c-16 -31 -8 -63 25 -99 46 -49 56 -123 24 -182 -11 -20
-20 -40 -20 -43 0 -14 30 19 36 39 3 12 13 30 22 39 14 17 16 17 28 0 9 -11
13 -12 14 -4 0 10 5 10 21 1 18 -9 24 -8 31 4 6 12 15 14 39 7 27 -8 31 -6 39
16 6 14 10 28 10 31 0 12 -130 129 -133 120 -5 -16 -38 1 -44 22 -3 11 -11 17
-21 15 -21 -5 -49 16 -53 40 -4 17 -6 16 -18 -6z m88 -84 c21 -26 28 -64 13
-64 -4 0 -25 20 -45 45 -38 44 -38 45 -13 45 15 0 33 -11 45 -26z m80 -50 c6
-14 11 -32 11 -41 0 -13 -3 -13 -15 -3 -8 7 -15 9 -15 4 -1 -23 -20 24 -20 48
0 33 22 29 39 -8z m38 -61 c-3 -10 -5 -4 -5 12 0 17 2 24 5 18 2 -7 2 -21 0
-30z m48 7 c3 -5 -1 -10 -10 -10 -9 0 -13 5 -10 10 3 6 8 10 10 10 2 0 7 -4
10 -10z"/>
<path d="M4035 4115 c-5 -11 -10 -24 -13 -30 -3 -5 3 -3 13 7 9 9 15 22 12 30
-3 9 -7 7 -12 -7z"/>
<path d="M5055 4100 c-121 -60 -383 -310 -441 -420 -27 -51 -28 -62 -26 -154
2 -87 0 -98 -14 -92 -9 3 -28 8 -42 11 -20 4 -17 0 11 -13 37 -16 38 -19 32
-55 l-6 -39 24 28 c14 16 29 24 35 20 18 -11 14 -23 -7 -29 -15 -4 -20 -16
-22 -57 -2 -28 -1 -54 4 -57 4 -2 7 9 7 26 0 23 7 33 28 43 l27 13 -4 136 c-3
115 -1 141 14 170 31 59 120 171 192 240 82 78 170 142 159 114 -6 -16 -4 -16
11 -4 72 55 77 61 77 97 1 44 -8 47 -59 22z m-22 -66 c-169 -119 -255 -202
-345 -336 l-48 -69 0 -109 c0 -107 -12 -150 -24 -89 -15 75 -6 173 20 229 60
130 216 292 368 384 73 44 95 36 29 -10z"/>
<path d="M4130 4071 c0 -6 4 -13 10 -16 6 -3 7 1 4 9 -7 18 -14 21 -14 7z"/>
<path d="M4032 4033 c-1 -24 0 -25 9 -10 5 9 17 17 24 17 8 0 15 5 15 10 0 6
-10 10 -23 10 -18 0 -23 -6 -25 -27z"/>
<path d="M1676 4025 c-3 -9 -6 -22 -5 -28 0 -7 5 -1 10 12 5 13 8 26 5 28 -2
2 -6 -3 -10 -12z"/>
<path d="M4057 4014 c-18 -18 -25 -35 -24 -55 1 -16 5 -29 10 -29 4 0 7 -7 7
-16 0 -9 6 -14 13 -11 19 6 129 -77 140 -106 1 -5 24 2 50 14 47 23 48 25 42
58 -4 19 -14 44 -23 57 -19 25 -82 40 -93 22 -4 -6 -18 -8 -33 -4 -21 5 -26
12 -26 35 0 16 5 31 12 33 6 2 8 10 4 16 -12 20 -52 13 -79 -14z m163 -124 c0
-5 -4 -10 -10 -10 -5 0 -10 5 -10 10 0 6 5 10 10 10 6 0 10 -4 10 -10z"/>
<path d="M3645 4009 c-11 -17 1 -21 15 -4 8 9 8 15 2 15 -6 0 -14 -5 -17 -11z"/>
<path d="M3647 3973 c-4 -3 -7 -11 -7 -17 0 -6 5 -5 12 2 6 6 9 14 7 17 -3 3
-9 2 -12 -2z"/>
<path d="M3930 3941 c0 -21 29 -81 39 -81 5 0 39 -25 75 -56 55 -46 71 -55 98
-52 42 4 48 29 13 52 -20 13 -30 14 -40 6 -9 -8 -14 -7 -18 3 -2 7 -22 21 -43
32 -22 11 -58 40 -81 64 -24 24 -43 39 -43 32z m60 -63 c0 -6 -6 -5 -15 2 -8
7 -15 14 -15 16 0 2 7 1 15 -2 8 -4 15 -11 15 -16z"/>
<path d="M4945 3908 l-40 -43 45 40 c25 22 47 41 49 43 2 1 0 2 -5 2 -6 0 -28
-19 -49 -42z"/>
<path d="M3642 3928 c-7 -7 -12 -18 -12 -25 0 -14 -21 -43 -60 -79 -31 -30
-22 -40 10 -11 14 12 32 21 41 19 20 -4 50 49 32 55 -18 6 -16 21 2 25 9 2 11
8 7 15 -6 10 -11 10 -20 1z"/>
<path d="M1540 3909 c-22 -18 -22 -19 -3 -10 12 6 25 16 28 21 9 15 3 12 -25
-11z"/>
<path d="M1586 3903 c-64 -33 -191 -161 -289 -290 -80 -106 -113 -139 -57 -57
18 25 30 47 27 50 -5 5 -80 -107 -127 -190 -26 -47 -30 -60 -19 -67 8 -5 17
-9 22 -9 10 0 9 -38 -2 -45 -6 -3 -14 2 -19 11 -5 9 -14 15 -20 13 -6 -2 0
-14 13 -27 l25 -24 11 29 c32 80 47 108 124 223 150 224 189 268 335 382 44
34 38 34 -24 1z m-406 -463 c-6 -11 -13 -20 -16 -20 -2 0 0 9 6 20 6 11 13 20
16 20 2 0 0 -9 -6 -20z m-30 -50 c-6 -11 -13 -20 -16 -20 -2 0 0 9 6 20 6 11
13 20 16 20 2 0 0 -9 -6 -20z"/>
<path d="M3412 3910 c0 -14 2 -19 5 -12 2 6 2 18 0 25 -3 6 -5 1 -5 -13z"/>
<path d="M1486 3875 c-11 -8 -15 -15 -9 -15 6 0 16 7 23 15 16 19 11 19 -14 0z"/>
<path d="M4330 3815 c-7 -8 -18 -15 -24 -14 -28 3 -44 -2 -50 -17 -5 -12 -1
-14 17 -9 37 10 66 27 71 41 7 18 1 18 -14 -1z"/>
<path d="M3505 3790 l-30 -8 27 -1 c15 0 30 4 33 9 3 6 5 9 3 9 -2 -1 -16 -5
-33 -9z"/>
<path d="M1289 3643 c-13 -16 -12 -17 4 -4 9 7 17 15 17 17 0 8 -8 3 -21 -13z"/>
<path d="M3878 3603 c6 -2 18 -2 25 0 6 3 1 5 -13 5 -14 0 -19 -2 -12 -5z"/>
<path d="M3933 3593 c9 -2 23 -2 30 0 6 3 -1 5 -18 5 -16 0 -22 -2 -12 -5z"/>
<path d="M5090 3596 c0 -11 30 -39 36 -34 2 3 -5 13 -16 23 -11 10 -20 15 -20
11z"/>
<path d="M3993 3583 c9 -2 23 -2 30 0 6 3 -1 5 -18 5 -16 0 -22 -2 -12 -5z"/>
<path d="M3005 3549 c-38 -5 -99 -14 -134 -20 -57 -11 -62 -13 -46 -25 10 -7
23 -15 28 -17 6 -2 -8 -20 -31 -41 -44 -40 -60 -86 -23 -67 10 6 37 14 60 20
51 11 52 4 11 -74 -17 -32 -29 -60 -27 -62 2 -2 16 1 30 6 28 11 54 60 64 119
4 25 17 41 52 65 44 31 50 32 129 29 l83 -3 -12 23 c-32 62 -42 64 -184 47z"/>
<path d="M3947 3531 c-6 -23 1 -25 128 -42 148 -19 455 -113 455 -139 0 -14
-11 -13 -54 5 -33 14 -122 40 -171 50 -11 3 -63 14 -115 25 -132 29 -206 40
-270 38 -30 0 -44 -2 -30 -5 62 -9 70 -13 70 -36 0 -13 -5 -28 -10 -33 -7 -7
14 -14 63 -23 l73 -13 -3 -46 c-1 -26 -2 -62 -2 -79 -1 -18 -4 -33 -8 -33 -5
0 -7 31 -5 69 4 78 11 72 -104 86 -50 6 -52 6 -57 -21 -8 -44 1 -54 49 -54 33
0 44 -4 44 -16 0 -13 -11 -15 -70 -12 -76 3 -95 -8 -30 -18 53 -9 51 -24 -2
-25 -32 -1 -25 -4 30 -10 139 -16 147 -29 15 -24 -68 3 -129 8 -137 11 -10 4
-16 24 -19 57 l-3 52 -2 -61 -2 -61 74 -13 75 -13 -6 -31 c-7 -41 -33 -96 -45
-96 -5 0 -17 -17 -26 -38 -10 -21 -42 -62 -72 -91 -53 -51 -55 -52 -99 -45
-25 4 -56 13 -67 21 -47 30 -131 120 -144 153 -8 19 -23 53 -35 75 -17 34 -19
49 -12 95 9 66 4 114 -6 55 -17 -90 -16 -90 -82 -93 -79 -4 -123 5 -129 26 -3
9 -8 43 -12 75 l-6 58 58 -3 c55 -3 59 -5 59 -28 0 -26 -10 -29 -54 -16 -22 8
-23 6 -16 -26 10 -47 20 -55 72 -63 62 -9 73 6 73 101 0 112 -23 131 -185 159
-88 15 -89 14 -113 -7 -12 -13 -36 -43 -51 -68 l-28 -46 50 -59 50 -60 -7 -90
c-10 -144 -11 -145 -62 -145 l-44 0 0 45 c0 43 1 45 30 45 27 0 31 5 44 51 15
49 15 52 -9 99 -38 76 -80 97 -130 64 -13 -8 -54 -22 -91 -30 -66 -13 -104
-35 -104 -60 0 -23 20 -26 76 -9 31 9 58 15 60 13 8 -9 7 -129 -1 -137 -7 -7
-9 5 -7 33 3 30 -1 46 -13 56 -17 14 -36 10 -117 -25 -14 -5 -18 -2 -18 14 0
31 -31 25 -60 -12 -32 -40 -36 -140 -7 -162 17 -12 15 -35 -6 -62 -7 -10 -16
-9 -38 4 -25 15 -28 22 -23 50 4 24 0 42 -16 68 -27 43 -65 64 -133 72 l-51 6
16 -25 17 -26 -49 -12 c-26 -6 -56 -17 -66 -25 -17 -12 -15 -17 24 -69 57 -75
38 -72 -28 5 -55 63 -56 78 -5 79 30 0 65 28 65 52 0 19 -4 20 -55 15 -30 -3
-83 -19 -117 -35 -35 -16 -76 -33 -93 -38 -26 -8 -31 -15 -37 -59 -12 -76 -1
-121 33 -146 28 -19 31 -20 48 -5 23 21 34 20 54 -2 15 -16 15 -20 1 -40 -34
-49 -68 -47 -133 8 -21 18 -24 32 -31 122 -7 113 -13 122 -82 133 -37 7 -43 4
-80 -31 -68 -66 -148 -196 -148 -241 0 -11 15 -34 34 -52 48 -47 74 -40 109
29 27 54 27 54 8 74 -24 23 -42 13 -61 -34 -13 -30 -40 -41 -40 -17 0 22 59
97 76 97 27 0 74 -33 74 -53 0 -22 -24 -71 -57 -114 -22 -30 -29 -33 -76 -33
-36 0 -60 6 -77 20 -29 22 -51 24 -99 6 l-34 -12 59 -63 c32 -35 60 -67 62
-71 2 -4 -34 -44 -80 -89 l-83 -80 -44 44 -44 44 47 55 c44 52 66 68 66 48 0
-4 -20 -27 -44 -51 l-44 -43 34 -30 35 -31 62 59 c34 32 63 59 65 60 3 2 -43
49 -86 87 l-31 28 -102 -101 -103 -100 25 -27 c14 -16 40 -47 58 -70 l32 -43
-75 -100 c-42 -55 -86 -118 -98 -140 -13 -22 -27 -40 -31 -40 -21 0 118 209
167 252 l31 27 -25 17 c-35 25 -89 84 -96 106 -7 24 42 86 137 170 38 34 69
65 69 70 0 10 -57 -11 -160 -60 -108 -50 -146 -91 -243 -262 -10 -19 -22 -37
-26 -40 -4 -3 -15 -25 -26 -50 -11 -25 -22 -47 -26 -50 -13 -10 -39 -82 -32
-93 3 -5 1 -7 -4 -4 -12 7 -12 6 -49 -133 -32 -124 -33 -125 -44 -114 -15 15
104 364 140 409 4 6 34 60 65 120 86 165 105 185 248 255 73 36 156 69 207 81
l85 21 48 99 c61 128 159 232 255 272 79 33 106 34 144 2 29 -25 78 -34 78
-15 0 5 -18 22 -41 37 -40 27 -40 27 -17 39 13 7 40 16 60 19 55 10 55 23 1
30 -49 6 -132 25 -146 33 -5 2 0 10 10 18 12 10 6 9 -19 -3 -21 -9 -38 -20
-38 -24 0 -4 -37 -29 -82 -54 -268 -153 -592 -434 -740 -641 -108 -151 -269
-480 -301 -614 -6 -28 -16 -50 -20 -50 -13 0 0 59 33 156 16 46 25 82 20 79
-5 -3 -23 -49 -41 -103 -48 -146 -39 -139 -112 -91 -34 23 -74 50 -90 61 -29
20 -107 33 -107 18 0 -5 16 -12 36 -16 37 -7 190 -102 180 -111 -3 -3 -36 13
-74 36 -38 23 -84 46 -103 51 -31 10 -155 3 -145 -7 2 -3 39 -9 81 -14 43 -6
94 -18 114 -28 68 -35 150 -103 160 -133 15 -43 68 -106 88 -104 13 1 18 -6
18 -26 0 -38 12 -44 33 -18 l19 23 22 -32 c12 -17 29 -31 37 -31 8 0 14 -7 14
-16 0 -50 219 -271 404 -407 28 -20 69 -52 90 -70 99 -81 129 -98 171 -95 30
2 42 9 50 25 5 13 22 24 41 28 56 10 78 35 76 87 -2 33 3 49 17 62 18 17 20
17 41 -4 14 -14 36 -22 63 -23 35 -2 42 1 45 18 2 13 -9 31 -28 48 -24 21 -30
35 -30 66 0 46 10 50 113 57 80 5 133 29 175 79 16 20 38 38 48 39 14 2 19 11
19 32 0 25 4 29 28 29 23 -1 26 2 21 20 -10 32 -33 73 -45 80 -10 7 -19 26
-33 71 -5 16 -2 23 13 27 16 4 19 12 16 40 -1 20 -10 46 -19 59 -9 12 -16 33
-16 46 0 27 39 106 69 142 l21 25 -10 -28 c-19 -53 -12 -86 26 -126 36 -40 70
-57 76 -39 3 7 24 5 60 -6 41 -12 62 -25 81 -50 18 -22 38 -36 61 -40 62 -12
106 -36 149 -81 37 -38 47 -44 72 -39 17 3 37 12 46 20 9 8 39 17 67 21 59 7
64 16 55 107 -6 62 5 99 52 189 8 16 15 37 15 48 0 24 17 25 24 2 7 -20 109
-83 135 -83 9 0 22 -5 29 -12 8 -8 10 -3 6 23 -3 20 -1 53 5 74 8 31 7 45 -5
71 -15 32 -15 34 10 58 13 14 29 33 34 42 8 14 12 14 30 3 18 -12 27 -9 71 21
34 23 55 46 62 68 13 38 28 43 21 6 -3 -17 4 -38 25 -67 17 -23 34 -57 38 -75
10 -50 62 -105 91 -98 21 6 23 4 15 -16 -10 -29 5 -87 24 -95 30 -11 68 9 118
63 29 31 61 69 71 86 25 38 33 24 35 -60 1 -37 5 -70 10 -75 12 -12 56 9 80
39 11 14 26 44 31 65 9 34 15 39 39 39 19 0 47 14 78 38 27 22 65 42 85 46 20
3 41 13 48 21 18 22 30 18 30 -10 0 -13 5 -35 11 -48 9 -19 7 -32 -10 -65 -25
-49 -26 -53 -5 -45 9 3 5 -6 -10 -22 -31 -33 -31 -34 -10 -63 13 -19 21 -22
52 -16 52 9 77 36 90 97 7 29 16 72 21 97 5 25 15 65 21 89 9 37 8 47 -4 59
-13 14 -13 17 2 29 16 12 16 14 0 27 -24 18 -23 24 4 28 18 2 24 12 31 48 11
63 2 188 -16 208 -8 10 -25 38 -37 64 l-22 48 19 37 c11 21 28 54 39 73 15 29
18 55 17 145 -2 166 -15 368 -25 388 -19 37 -181 96 -420 152 -133 31 -174 32
-181 6z m-618 -157 c17 -14 31 -33 31 -41 0 -14 -2 -14 -17 -1 -10 8 -26 18
-35 21 -9 3 -22 15 -28 26 -16 30 11 28 49 -5z m611 -54 c0 -11 -4 -20 -10
-20 -5 0 -10 9 -10 20 0 11 5 20 10 20 6 0 10 -9 10 -20z m260 13 c24 -7 23
-8 -10 -13 l-35 -5 -6 -65 c-3 -36 -4 -68 -2 -72 2 -5 22 -8 44 -8 21 0 39 -4
39 -8 0 -9 -86 0 -95 10 -3 3 -3 42 1 87 7 87 10 89 64 74z m126 -38 c24 -18
7 -19 -26 0 -16 9 -19 14 -9 15 8 0 24 -7 35 -15z m150 -37 l66 -22 -4 -78
c-3 -43 -7 -81 -11 -84 -3 -4 -21 -1 -39 6 -18 7 -62 23 -98 36 -80 28 -60 31
35 5 81 -23 85 -20 85 56 l0 51 -47 16 c-26 9 -53 16 -60 16 -20 0 -16 -50 5
-56 40 -13 66 -27 56 -30 -19 -8 -89 23 -92 40 -6 29 7 66 23 66 8 0 44 -10
81 -22z m-225 -8 c21 -12 24 -37 8 -60 -8 -12 -9 -9 -5 12 6 24 2 30 -26 42
-21 9 -27 15 -15 15 10 1 27 -4 38 -9z m-81 -400 c0 -10 -31 -23 -38 -15 -8 7
19 35 29 29 5 -3 9 -9 9 -14z m14 -75 c3 -9 0 -15 -9 -15 -8 0 -15 7 -15 15 0
8 4 15 9 15 5 0 11 -7 15 -15z m-764 -62 c-1 -22 -23 -53 -39 -53 -16 0 -14
16 5 45 19 29 34 32 34 8z m645 -22 c-3 -12 -11 -21 -16 -21 -10 0 -12 43 -2
54 12 12 25 -11 18 -33z m-975 -144 c0 -7 -7 -22 -15 -33 -14 -18 -14 -18 -15
7 0 14 3 29 7 32 11 11 23 8 23 -6z m890 -33 c0 -20 -18 -54 -29 -54 -4 0 -13
11 -19 25 -9 20 -8 26 6 34 25 15 42 13 42 -5z m-147 -23 c6 -24 0 -31 -25
-31 -21 0 -22 4 -6 30 16 25 24 25 31 1z m667 -121 c0 -5 -4 -10 -10 -10 -5 0
-10 5 -10 10 0 6 5 10 10 10 6 0 10 -4 10 -10z m-60 -30 c0 -5 -4 -10 -10 -10
-5 0 -10 5 -10 10 0 6 5 10 10 10 6 0 10 -4 10 -10z m-3170 -14 c0 -8 15 -26
33 -42 l34 -28 -56 -87 c-31 -49 -59 -89 -64 -89 -11 0 32 80 64 120 16 19 29
40 29 47 0 17 -29 43 -49 43 -20 0 -63 -65 -103 -154 -15 -34 -28 -53 -28 -43
0 22 64 151 96 194 13 17 24 36 24 42 0 6 5 11 10 11 6 0 10 -6 10 -14z m3230
4 c0 -5 -4 -10 -10 -10 -5 0 -10 5 -10 10 0 6 5 10 10 10 6 0 10 -4 10 -10z
m-2275 -47 c-4 -16 -8 -34 -8 -41 0 -16 -44 -35 -58 -26 -26 16 0 72 41 87 28
10 32 7 25 -20z m-1045 2 c20 -24 6 -28 -15 -5 -10 11 -13 20 -8 20 6 0 16 -7
23 -15z m1818 -7 c2 -10 -2 -18 -9 -18 -7 0 -25 -12 -41 -27 -23 -22 -30 -24
-43 -13 -20 16 -19 22 6 54 16 21 28 26 53 24 20 -2 32 -9 34 -20z m1499 -3
c9 -20 8 -25 -2 -25 -7 0 -16 7 -19 16 -15 40 3 47 21 9z m-1887 -69 c0 -10
-9 -14 -27 -12 -36 5 -35 4 -28 16 10 16 55 12 55 -4z m478 -39 c7 -8 7 -18 2
-27 -11 -18 -43 -2 -48 24 -4 20 30 22 46 3z m-1588 -72 c7 -9 11 -18 8 -20
-9 -10 -38 7 -38 21 0 18 14 18 30 -1z m827 -10 c-7 -14 -15 -25 -19 -25 -13
0 -9 38 5 43 23 10 25 7 14 -18z m-1240 -99 c-25 -38 -35 -41 -16 -4 10 19 27
37 36 38 1 0 -8 -15 -20 -34z m34 -83 c-12 -20 -14 -14 -5 12 4 9 9 14 11 11
3 -2 0 -13 -6 -23z m64 -33 c-9 -18 -19 -30 -21 -27 -3 2 3 18 13 35 23 40 29
33 8 -8z m-144 3 c-12 -20 -14 -14 -5 12 4 9 9 14 11 11 3 -2 0 -13 -6 -23z
m-191 -23 c12 -8 12 -10 1 -10 -8 0 -20 -8 -27 -17 -12 -17 -13 -17 -14 3 0
33 13 41 40 24z m195 -46 c27 -17 31 -40 14 -64 -8 -12 -9 -9 -5 13 5 20 2 29
-9 34 -20 7 -32 -4 -40 -39 -6 -23 0 -31 45 -67 29 -23 47 -41 42 -41 -19 0
-97 66 -101 85 -3 17 18 95 26 95 2 0 15 -7 28 -16z m1069 -61 c-31 -22 -44
-16 -44 22 l0 36 31 -23 c28 -21 29 -24 13 -35z m-982 -18 c-9 -26 -18 -42
-20 -36 -3 10 24 81 32 81 3 0 -3 -20 -12 -45z m-263 -15 c11 -22 19 -40 16
-40 -6 0 -55 73 -55 83 0 16 18 -4 39 -43z m37 2 c-9 -9 -37 8 -31 18 5 8 11
7 21 -1 8 -6 12 -14 10 -17z m352 -137 c11 -9 -12 -45 -28 -45 -20 0 -36 33
-25 50 6 9 41 5 53 -5z m782 -121 c13 -33 13 -34 -4 -34 -20 0 -39 27 -32 45
8 23 25 18 36 -11z m-458 -81 c22 -20 23 -29 1 -37 -18 -7 -66 31 -57 45 8 14
36 10 56 -8z m306 -11 c4 -26 -13 -52 -34 -52 -8 0 -14 7 -14 16 0 13 -7 15
-30 11 -44 -9 -45 8 -2 32 47 26 76 23 80 -7z m-228 -291 c0 -23 -16 -36 -25
-21 -9 14 1 40 15 40 5 0 10 -9 10 -19z"/>
<path d="M5113 3528 c-23 -30 -27 -41 -10 -35 8 3 25 -3 37 -13 18 -15 27 -17
51 -8 l30 10 -27 14 c-15 8 -29 12 -32 9 -3 -2 -13 4 -22 15 -14 16 -20 17
-27 8z"/>
<path d="M3650 3470 c-10 -6 19 -7 85 -3 55 3 102 7 104 9 10 9 -175 3 -189
-6z"/>
<path d="M2535 3438 c-126 -41 -228 -79 -238 -88 -5 -4 14 -15 41 -24 75 -25
83 -42 26 -49 -35 -4 -55 0 -78 14 -42 26 -98 24 -141 -3 -19 -13 -33 -27 -32
-33 2 -5 37 -20 78 -33 59 -18 80 -21 103 -13 33 12 56 1 151 -71 63 -48 82
-50 60 -7 -9 16 -25 39 -36 50 -20 20 -20 22 -3 87 9 37 20 71 24 75 4 4 29
-10 57 -33 49 -39 51 -42 58 -105 10 -97 34 -81 50 33 5 42 13 57 39 80 38 31
61 66 70 104 5 24 3 27 -26 33 -28 6 -36 3 -60 -24 -15 -17 -28 -38 -28 -45 0
-14 -69 -61 -77 -53 -10 11 12 59 44 96 19 23 29 40 21 40 -7 -1 -53 -15 -103
-31z"/>
<path d="M3014 3446 c-38 -17 -45 -27 -61 -86 -17 -63 -17 -64 17 -40 25 18
100 119 100 135 0 9 -24 5 -56 -9z"/>
<path d="M4950 3423 c-7 -21 -17 -44 -23 -50 -5 -7 -6 -13 -1 -13 5 0 -1 -7
-13 -15 -25 -17 -36 -72 -16 -79 7 -3 13 -12 13 -21 0 -8 5 -15 10 -15 6 0 10
-16 10 -35 0 -35 -13 -47 -23 -21 -3 8 -15 19 -26 25 -17 10 -24 2 -69 -82
-48 -91 -49 -92 -44 -169 2 -43 8 -75 13 -72 5 3 9 -4 9 -15 0 -12 4 -21 10
-21 5 0 13 -18 16 -41 4 -22 10 -36 14 -29 4 6 13 10 20 8 7 -2 24 12 37 31
15 22 23 28 23 17 0 -10 5 -14 11 -11 6 4 13 -2 16 -13 5 -19 43 -28 43 -11 0
11 43 -2 63 -19 11 -10 17 -11 17 -4 0 7 5 12 10 12 6 0 10 -15 11 -32 1 -31
1 -32 9 -8 l8 25 2 -25 2 -25 7 25 7 25 9 -25 c8 -24 8 -24 17 -5 8 20 3 -101
-7 -154 l-5 -26 11 25 c7 14 11 33 10 44 -2 10 3 31 9 47 14 32 0 219 -26 349
-35 175 -122 409 -146 394 -7 -5 -9 -1 -5 9 3 8 0 21 -8 27 -10 9 -16 3 -25
-27z"/>
<path d="M5140 3440 c0 -5 4 -10 9 -10 6 0 6 -12 2 -28 -7 -24 -5 -29 15 -39
19 -9 27 -8 38 3 17 16 30 19 21 4 -3 -6 1 -7 9 -4 17 7 22 24 7 24 -5 0 -7 9
-4 21 4 12 0 25 -8 30 -19 12 -89 11 -89 -1z"/>
<path d="M3548 3424 c-38 -20 -35 -24 15 -23 24 1 32 4 19 6 -19 4 -21 7 -11
19 14 17 11 17 -23 -2z"/>
<path d="M3420 3410 c-9 -6 -10 -10 -3 -10 6 0 15 5 18 10 8 12 4 12 -15 0z"/>
<path d="M3475 3380 c-3 -6 1 -7 9 -4 18 7 21 14 7 14 -6 0 -13 -4 -16 -10z"/>
<path d="M3564 3372 c-6 -4 -14 -34 -17 -67 -4 -39 -3 -51 2 -35 5 14 9 40 10
57 1 25 6 34 24 37 12 3 31 7 42 9 11 3 4 5 -15 6 -19 0 -40 -3 -46 -7z"/>
<path d="M2782 3348 c-48 -23 -86 -73 -112 -146 -9 -26 -20 -56 -25 -67 -4
-11 3 -5 16 14 13 19 36 47 50 62 15 16 22 30 16 32 -6 2 -7 9 -3 15 11 18 89
67 102 64 6 -1 16 9 22 23 10 21 9 25 -6 25 -9 -1 -37 -10 -60 -22z"/>
<path d="M3432 3358 c-7 -7 -11 -26 -11 -42 2 -28 2 -28 6 -6 3 14 12 33 20
43 18 19 4 24 -15 5z"/>
<path d="M3728 3363 c6 -2 18 -2 25 0 6 3 1 5 -13 5 -14 0 -19 -2 -12 -5z"/>
<path d="M2110 3320 c-8 -5 -12 -11 -10 -14 3 -2 14 2 24 10 22 15 10 19 -14
4z"/>
<path d="M2496 3275 c-25 -58 -21 -79 19 -101 40 -21 51 -15 60 36 5 31 2 39
-29 69 l-35 34 -15 -38z m56 -58 c-3 -12 -7 -16 -10 -9 -2 6 -12 12 -23 12
-21 0 -22 3 -13 38 l7 23 22 -21 c15 -15 21 -28 17 -43z"/>
<path d="M1087 3271 c24 -23 33 -26 33 -13 0 5 -12 14 -27 21 l-28 13 22 -21z"/>
<path d="M3618 3283 c12 -2 30 -2 40 0 9 3 -1 5 -23 4 -22 0 -30 -2 -17 -4z"/>
<path d="M3732 3250 c0 -14 2 -19 5 -12 2 6 2 18 0 25 -3 6 -5 1 -5 -13z"/>
<path d="M1062 3245 c9 -10 21 -16 28 -13 7 2 -1 10 -16 17 -27 12 -28 11 -12
-4z"/>
<path d="M921 3236 c-34 -19 -50 -66 -58 -165 -6 -84 -7 -87 -52 -141 -62 -74
-76 -100 -61 -110 17 -11 3 -70 -17 -70 -9 0 -13 -6 -10 -14 13 -34 19 -106 8
-106 -6 0 -11 12 -11 27 0 14 -3 24 -6 20 -9 -9 -34 19 -34 38 0 10 -5 14 -12
9 -7 -4 -1 6 15 23 37 39 35 54 -3 18 -25 -24 -43 -30 -98 -36 -37 -5 -88 -5
-114 -2 -52 6 -63 -2 -23 -17 22 -8 24 -13 15 -30 -6 -11 -7 -20 -3 -20 4 0 2
-5 -5 -12 -19 -19 -14 -30 9 -17 24 12 22 8 -14 -45 -19 -27 -19 -28 -1 -18
11 6 28 20 38 31 11 12 25 21 33 21 11 0 11 -5 -2 -29 l-15 -29 29 14 c15 8
36 23 46 34 10 11 24 20 32 20 7 0 13 8 13 17 0 9 7 25 16 35 16 17 18 17 40
-14 13 -17 35 -62 50 -100 14 -37 28 -68 30 -68 2 0 10 15 18 34 8 18 34 55
59 81 44 46 45 48 40 98 -4 40 1 70 21 130 27 82 117 268 159 328 24 35 24 36
5 48 -16 10 -24 9 -43 -3 -14 -9 -38 -16 -55 -16 -19 0 -30 -5 -30 -14 0 -7
-6 -19 -14 -25 -11 -9 -15 -8 -20 5 -5 12 4 28 26 51 35 36 35 39 -1 19z m94
-75 c-21 -43 -29 -39 -8 4 9 19 18 33 21 31 2 -2 -4 -18 -13 -35z m-60 -69
c-3 -52 -18 -71 -42 -56 -37 23 -38 40 -3 84 38 48 50 41 45 -28z m-115 -174
c-13 -29 -26 -44 -41 -46 -19 -3 -18 1 16 42 20 25 39 46 41 46 2 0 -6 -19
-16 -42z m-30 -67 c0 -12 -20 -25 -27 -18 -7 7 6 27 18 27 5 0 9 -4 9 -9z m56
-23 c4 -6 3 -13 -2 -15 -6 -2 -8 -19 -6 -39 4 -34 4 -35 -24 -28 -40 9 -42 14
-8 15 l29 1 -27 11 c-29 11 -36 35 -16 55 15 15 45 15 54 0z m-92 -63 c-4 -8
-8 -15 -10 -15 -2 0 -4 7 -4 15 0 8 4 15 10 15 5 0 7 -7 4 -15z m56 -35 c12
-8 9 -10 -13 -10 -16 0 -26 4 -22 10 8 12 16 12 35 0z m28 -49 c11 -7 9 -13
-9 -30 -27 -25 -34 -21 -25 14 7 27 13 30 34 16z"/>
<path d="M3720 3192 c0 -9 -33 -12 -110 -12 -69 0 -110 -4 -110 -10 0 -7 40
-10 111 -9 86 1 112 4 116 16 3 7 3 17 -1 20 -3 4 -6 1 -6 -5z"/>
<path d="M2203 3167 c-46 -17 -48 -22 -11 -48 22 -16 28 -17 19 -6 -21 27 -7
32 77 28 63 -2 81 -7 105 -27 16 -13 37 -24 47 -24 10 0 26 -3 36 -7 11 -4 15
-3 10 5 -3 6 -42 29 -86 51 -85 44 -135 51 -197 28z"/>
<path d="M509 3117 c-9 -12 -24 -35 -35 -52 -16 -26 -16 -28 -1 -16 19 15 61
80 56 86 -2 1 -11 -7 -20 -18z"/>
<path d="M815 3087 c-16 -28 -49 -72 -71 -98 -23 -26 -43 -51 -45 -56 -8 -17
-90 -83 -98 -79 -5 3 -17 -4 -27 -15 -16 -17 -16 -22 -4 -29 24 -15 68 -11 90
8 11 9 29 25 40 35 11 9 24 17 30 17 5 0 25 33 44 74 19 41 39 77 44 80 10 6
37 104 31 111 -2 2 -17 -20 -34 -48z"/>
<path d="M2338 3113 c7 -3 16 -2 19 1 4 3 -2 6 -13 5 -11 0 -14 -3 -6 -6z"/>
<path d="M1985 3081 c-54 -26 -57 -29 -35 -34 64 -15 157 -17 174 -4 16 12 14
15 -24 40 -23 15 -45 27 -48 27 -4 0 -34 -13 -67 -29z"/>
<path d="M707 3076 c3 -5 -2 -15 -12 -23 -11 -7 -14 -13 -9 -13 6 0 20 10 32
23 20 21 20 23 2 23 -10 0 -16 -5 -13 -10z"/>
<path d="M5240 3020 c0 -5 7 -7 15 -4 8 4 15 8 15 10 0 2 -7 4 -15 4 -8 0 -15
-4 -15 -10z"/>
<path d="M407 2990 c-14 -16 -28 -39 -32 -50 -3 -11 -9 -20 -13 -20 -4 0 -18
-10 -32 -21 l-25 -20 32 15 c40 20 57 20 73 1 15 -18 30 -11 30 15 0 20 19 30
56 30 29 0 30 -7 3 -36 -19 -20 -38 -77 -39 -114 0 -12 2 -12 9 -2 4 8 12 13
17 13 5 -1 12 14 16 34 9 42 33 82 67 113 23 20 23 22 4 13 -28 -14 -80 -14
-88 0 -4 5 -18 14 -31 19 -15 6 -22 15 -18 25 9 23 -2 18 -29 -15z"/>
<path d="M632 2963 c-42 -49 -49 -71 -11 -37 28 26 62 74 56 80 -2 3 -23 -16
-45 -43z"/>
<path d="M4720 2865 c0 -76 3 -136 6 -133 7 7 6 259 -1 266 -3 3 -5 -57 -5
-133z"/>
<path d="M5427 2898 c-3 -7 -21 -51 -41 -97 -20 -46 -30 -79 -22 -72 7 6 19
25 26 40 6 16 20 31 31 34 16 4 19 14 19 56 0 51 -4 62 -13 39z"/>
<path d="M550 2880 c0 -5 5 -10 11 -10 5 0 7 5 4 10 -3 6 -8 10 -11 10 -2 0
-4 -4 -4 -10z"/>
<path d="M281 2846 c-14 -14 -23 -28 -20 -30 7 -8 51 33 47 44 -2 6 -14 0 -27
-14z"/>
<path d="M415 2807 c-4 -26 -5 -50 -2 -53 8 -8 20 60 15 83 -3 10 -8 -4 -13
-30z"/>
<path d="M5319 2665 c-30 -61 -141 -258 -149 -265 -3 -3 -18 -29 -33 -59 -15
-30 -48 -92 -73 -138 -25 -46 -42 -83 -37 -83 5 0 17 16 27 36 13 29 20 34 29
25 9 -9 9 -14 -1 -19 -6 -5 -14 -29 -17 -55 -5 -39 -3 -47 10 -47 9 0 27 -11
39 -25 22 -23 25 -24 39 -10 21 21 36 19 58 -7 18 -23 18 -23 19 -2 0 17 5 20
24 17 17 -4 27 1 35 15 18 34 24 98 11 121 -11 22 -12 22 -25 4 -7 -10 -16
-15 -19 -12 -13 13 -30 120 -21 127 21 15 33 51 31 86 -2 20 0 36 5 36 4 0 8
15 7 33 0 117 3 131 38 189 20 32 34 64 31 71 -2 6 -15 -10 -28 -38z"/>
<path d="M631 2534 c0 -11 3 -14 6 -6 3 7 2 16 -1 19 -3 4 -6 -2 -5 -13z"/>
<path d="M186 2517 c-4 -9 -9 -25 -12 -34 -14 -41 -21 -83 -13 -77 5 3 9 16 9
29 0 17 9 27 41 39 34 14 39 19 29 31 -7 8 -17 12 -22 9 -6 -4 -14 0 -19 7 -6
11 -9 10 -13 -4z"/>
<path d="M640 2502 c0 -14 38 -92 45 -92 2 0 0 13 -5 30 -10 34 -40 81 -40 62z"/>
<path d="M751 2424 c-1 -27 -50 -52 -62 -32 -7 10 -9 9 -9 -4 0 -9 -4 -20 -10
-23 -5 -3 -72 -12 -147 -20 -76 -8 -165 -22 -198 -30 -33 -8 -80 -16 -105 -18
-36 -3 -41 -5 -22 -11 12 -5 22 -12 22 -17 0 -5 14 -9 30 -9 17 0 46 -6 64
-14 42 -18 67 -6 42 20 -17 16 -17 18 1 28 10 6 54 12 98 12 167 3 176 4 170
14 -4 6 5 10 19 10 29 0 36 -20 9 -21 -16 0 -16 -1 1 -8 14 -5 16 -10 8 -15
-7 -4 -10 -11 -7 -16 3 -4 -21 -34 -52 -65 -32 -31 -47 -51 -34 -45 13 7 38 9
57 5 28 -5 33 -3 28 10 -5 11 1 15 25 15 17 0 40 5 50 12 16 10 28 8 66 -12
48 -24 58 -22 70 18 6 20 3 22 -32 24 -41 1 -46 1 -111 -11 -53 -10 -43 2 22
26 51 19 73 43 39 43 -11 0 -28 -7 -39 -15 -22 -17 -38 -20 -29 -5 8 13 -1 13
-26 0 -18 -10 -18 -9 -6 17 6 15 28 42 47 61 19 19 28 30 20 26 -13 -7 -13 -5
-2 9 8 9 12 26 9 39 -4 21 -4 21 -6 2z"/>
<path d="M815 2412 c37 -23 45 -33 83 -105 17 -31 33 -53 37 -47 14 23 -68
145 -107 159 -44 16 -47 14 -13 -7z"/>
<path d="M996 2305 c-9 -26 -7 -32 5 -12 6 10 9 21 6 23 -2 3 -7 -2 -11 -11z"/>
<path d="M967 2243 c-4 -3 -7 -11 -7 -17 0 -6 5 -5 12 2 6 6 9 14 7 17 -3 3
-9 2 -12 -2z"/>
<path d="M145 2210 c3 -5 -1 -23 -10 -40 -19 -38 -10 -39 69 -9 61 24 70 35
16 19 -35 -10 -53 0 -44 24 3 7 -5 12 -16 13 -11 1 -18 -2 -15 -7z"/>
<path d="M60 2115 l-23 -25 26 13 c15 6 27 18 27 25 0 17 -3 16 -30 -13z"/>
<path d="M857 2123 c-4 -3 -7 -16 -6 -27 0 -19 1 -19 10 3 10 24 8 36 -4 24z"/>
<path d="M792 2106 l-33 -12 20 -18 c13 -12 21 -31 21 -53 0 -47 14 -41 18 8
1 23 7 50 12 60 13 24 2 29 -38 15z"/>
<path d="M5403 2018 c-69 -141 -67 -134 -46 -171 19 -32 35 -78 37 -106 1 -7
11 -20 24 -28 l22 -15 0 191 c0 105 -1 191 -3 191 -2 0 -17 -28 -34 -62z"/>
<path d="M0 2062 c0 -4 5 -13 12 -20 9 -9 9 -12 0 -12 -8 0 -12 -22 -12 -70 0
-72 5 -79 43 -64 17 6 11 52 -10 72 -21 21 -10 37 23 35 28 -2 28 -1 9 13 -11
8 -30 24 -42 34 -13 11 -23 16 -23 12z"/>
<path d="M36 1987 c3 -10 9 -15 12 -12 3 3 0 11 -7 18 -10 9 -11 8 -5 -6z"/>
<path d="M178 1990 c-37 -5 -72 -11 -78 -15 -11 -7 -13 -35 -4 -59 8 -20 69
-21 104 -1 14 8 38 14 53 15 18 0 26 4 21 11 -4 7 -21 9 -40 6 -19 -3 -36 -2
-39 2 -2 5 28 14 68 20 153 25 88 41 -85 21z"/>
<path d="M330 1740 c0 -48 116 -350 204 -529 88 -180 254 -461 272 -461 7 0
-10 35 -20 42 -7 5 -6 8 2 8 10 0 9 5 -4 17 -11 11 -13 18 -5 21 20 7 12 58
-15 98 -25 37 -26 43 -20 122 5 69 3 89 -11 112 -21 37 -10 50 20 24 28 -25
87 -57 87 -48 0 3 6 1 14 -5 18 -15 79 -3 72 15 -8 21 12 17 31 -5 9 -11 20
-18 25 -15 5 3 21 -2 36 -12 15 -10 34 -19 42 -20 8 -1 22 -4 30 -7 10 -4 23
6 38 29 12 19 22 38 22 42 0 4 -24 32 -53 62 -29 30 -65 72 -81 93 -16 20 -32
37 -37 37 -5 0 -73 32 -151 71 -141 69 -291 166 -282 181 10 16 143 8 210 -13
60 -18 75 -28 119 -78 78 -88 254 -267 325 -329 36 -31 61 -52 57 -47 -5 6
-78 82 -162 170 -199 209 -265 289 -281 339 -11 35 -13 37 -13 14 -1 -16 -3
-28 -6 -28 -3 0 -32 11 -65 25 -52 22 -74 25 -177 25 l-117 0 -47 40 c-26 22
-50 40 -53 40 -3 0 -6 -13 -6 -30z m328 -79 c8 -5 -22 -10 -74 -14 -87 -6
-125 0 -88 14 26 10 146 11 162 0z m22 -184 c0 -22 -26 -51 -38 -43 -13 8 -16
39 -5 49 11 12 43 7 43 -6z m50 -32 c0 -8 -4 -15 -9 -15 -13 0 -22 16 -14 24
11 11 23 6 23 -9z"/>
<path d="M4727 1706 c-4 -10 -5 -21 -2 -24 9 -9 17 6 13 25 -3 17 -4 17 -11
-1z"/>
<path d="M30 1658 c0 -11 48 -10 54 1 3 4 -8 8 -24 7 -17 -1 -30 -4 -30 -8z"/>
<path d="M0 1596 c0 -27 16 -44 22 -24 3 8 9 8 23 0 18 -10 18 -11 -8 -17 -28
-7 -37 -25 -13 -25 8 0 18 -5 21 -10 4 -7 -2 -9 -19 -4 -21 5 -26 3 -26 -12 0
-9 3 -14 6 -11 11 11 44 -13 44 -32 0 -11 7 -21 15 -25 21 -8 19 -23 -6 -29
-17 -5 -19 -9 -9 -27 6 -11 10 -33 9 -48 -4 -50 1 -72 16 -72 12 0 14 11 10
53 -5 48 -3 53 16 53 19 0 20 -4 14 -46 -8 -49 -20 -70 -42 -70 -10 0 -13 -10
-11 -37 2 -31 7 -39 27 -41 21 -3 23 -1 18 20 -5 21 -5 21 7 6 15 -21 32 -23
40 -5 3 6 5 3 3 -8 -1 -12 -11 -21 -22 -22 -112 -11 -135 -16 -135 -28 0 -23
36 -27 117 -11 15 3 23 -2 28 -17 l8 -22 4 23 c4 19 10 22 57 22 48 0 73 11
75 33 1 4 1 39 1 77 l0 70 55 0 c30 0 55 3 55 8 0 13 -41 117 -50 126 -6 6
-12 3 -16 -7 -9 -24 -17 -22 -80 20 -42 28 -57 34 -66 25 -27 -27 -65 -3 -52
32 4 10 -10 24 -38 41 -24 15 -55 35 -70 46 l-28 20 0 -25z m245 -177 c12 -19
-5 -23 -22 -6 -16 16 -16 17 -1 17 9 0 20 -5 23 -11z m-51 -37 c-4 -9 -6 -23
-5 -31 1 -7 -4 -11 -11 -9 -18 6 -18 46 0 65 19 18 28 3 16 -25z m60 -184 l7
-38 -42 0 -41 0 31 29 c17 16 31 35 31 42 0 22 7 5 14 -33z"/>
<path d="M227 1569 c3 -10 9 -16 14 -13 13 8 11 21 -5 27 -10 4 -12 0 -9 -14z"/>
<path d="M4687 1583 c-4 -3 -7 -16 -6 -27 0 -12 3 -15 6 -8 2 6 11 12 19 12 8
0 14 7 14 15 0 15 -21 21 -33 8z"/>
<path d="M5392 1568 c3 -7 -4 -21 -14 -32 -19 -21 -24 -56 -8 -56 6 0 15 11
20 24 5 13 14 27 19 31 17 10 13 45 -5 45 -9 0 -14 -6 -12 -12z"/>
<path d="M4775 1548 c-16 -4 -36 -6 -44 -3 -11 4 -11 1 2 -17 8 -13 23 -22 33
-20 30 5 74 24 74 32 0 13 -33 17 -65 8z"/>
<path d="M256 1542 c-9 -9 19 -29 33 -24 10 4 12 1 6 -9 -8 -12 -6 -12 9 0 11
10 14 17 7 24 -11 11 -48 17 -55 9z"/>
<path d="M4570 1536 c0 -7 -10 -20 -22 -28 -28 -19 -16 -43 13 -27 11 6 27 8
35 5 8 -3 14 -1 14 4 0 6 7 10 15 10 25 0 17 18 -17 34 -38 19 -38 19 -38 2z"/>
<path d="M335 1510 c-10 -11 -13 -20 -8 -20 13 0 38 29 31 35 -3 3 -13 -4 -23
-15z"/>
<path d="M5421 1481 c-8 -5 -11 -16 -7 -29 6 -17 3 -19 -16 -15 -13 4 -27 12
-31 20 -12 19 -61 16 -81 -6 -10 -11 -18 -35 -18 -55 0 -27 -4 -36 -17 -36 -9
0 -30 -18 -47 -41 -16 -22 -35 -46 -41 -54 -18 -19 -16 -28 8 -60 18 -22 20
-29 8 -36 -12 -8 -11 -12 4 -24 11 -7 25 -11 32 -9 22 9 28 -33 8 -62 -17 -26
-17 -27 6 -42 27 -18 68 -24 76 -11 4 5 -1 9 -9 9 -9 0 -16 5 -16 10 0 20 30
9 61 -21 30 -29 33 -30 45 -14 12 16 14 16 25 -9 15 -33 29 -34 29 -1 0 14 -5
25 -10 25 -6 0 -9 12 -8 28 1 15 -4 37 -10 48 -9 18 -8 25 8 39 16 14 20 31
20 82 0 44 -4 63 -12 63 -9 0 -10 3 -2 8 9 6 21 202 12 202 -2 0 -9 -4 -17 -9z
m-64 -273 c-3 -8 -6 -5 -6 6 -1 11 2 17 5 13 3 -3 4 -12 1 -19z m23 -84 c0 -2
-7 -4 -15 -4 -8 0 -15 4 -15 10 0 5 7 7 15 4 8 -4 15 -8 15 -10z"/>
<path d="M4585 1454 c-16 -9 -42 -32 -56 -52 -23 -31 -25 -39 -13 -50 21 -19
17 -27 -21 -45 -43 -20 -45 -43 -5 -49 22 -3 35 1 50 19 11 13 28 23 39 23 15
0 18 7 17 40 -1 37 -3 40 -31 40 l-30 1 50 44 c51 47 51 54 0 29z"/>
<path d="M0 1392 c0 -18 5 -32 10 -32 6 0 8 11 4 28 -10 39 -14 40 -14 4z"/>
<path d="M331 1284 c14 -17 32 -19 27 -2 -2 6 -12 12 -22 14 -14 2 -15 0 -5
-12z"/>
<path d="M406 1163 l6 -118 36 -33 c74 -67 81 -8 16 152 -26 64 -51 116 -56
116 -4 0 -5 -53 -2 -117z"/>
<path d="M330 1251 c0 -10 19 -25 25 -20 1 2 -3 10 -11 17 -8 7 -14 8 -14 3z"/>
<path d="M7 1236 c-6 -15 3 -65 12 -70 16 -10 28 11 24 41 -5 33 -28 51 -36
29z"/>
<path d="M1320 1091 c30 -29 64 -57 75 -63 25 -13 17 -5 -65 61 l-65 53 55
-51z"/>
<path d="M109 1118 c-7 -15 -6 -58 2 -58 5 0 9 14 9 30 0 25 -6 39 -11 28z"/>
<path d="M0 1028 l1 -73 24 30 c14 17 25 38 25 47 0 9 6 19 13 22 9 5 9 7 0
12 -7 3 -9 12 -6 20 3 8 0 14 -6 14 -6 0 -11 -18 -11 -41 0 -25 -4 -38 -10
-34 -6 4 -10 14 -9 23 3 33 -1 52 -11 52 -6 0 -10 -31 -10 -72z"/>
<path d="M152 1058 c2 -13 -4 -28 -12 -35 -8 -6 -11 -15 -6 -20 5 -4 11 -2 13
5 3 6 14 12 26 12 12 0 18 4 12 8 -5 4 -10 13 -11 20 -2 27 -4 32 -15 32 -6 0
-9 -10 -7 -22z"/>
<path d="M100 1030 c0 -5 5 -10 10 -10 6 0 10 5 10 10 0 6 -4 10 -10 10 -5 0
-10 -4 -10 -10z"/>
<path d="M5163 996 c1 -6 -6 -10 -16 -8 -9 2 -24 -4 -33 -13 -9 -8 -11 -15 -4
-15 7 0 8 -5 2 -16 -5 -9 -7 -25 -5 -35 3 -11 0 -19 -6 -19 -6 0 -11 -7 -11
-15 0 -8 16 -19 40 -25 22 -6 40 -14 40 -18 -1 -13 -27 -42 -38 -42 -7 0 -15
-12 -18 -27 -7 -29 -43 -82 -57 -82 -4 -1 -18 -10 -30 -21 -12 -12 -31 -20
-42 -19 -44 3 -65 -2 -65 -15 0 -7 -7 -20 -16 -27 -42 -34 -36 -113 7 -102 25
7 24 -14 -1 -22 -11 -3 -20 -10 -20 -14 0 -19 38 -49 72 -55 20 -3 38 -13 41
-20 9 -22 42 -24 83 -5 22 10 32 19 24 19 -12 0 -11 3 3 11 10 6 20 9 21 7 8
-9 15 -58 9 -58 -5 0 -19 -9 -33 -20 l-25 -20 23 0 c15 0 21 4 16 12 -5 8 2 9
24 5 31 -6 39 1 32 28 -6 24 0 46 22 75 19 26 20 32 8 40 -13 8 -13 10 1 10
20 0 33 51 16 62 -7 5 -3 8 11 8 12 0 22 5 22 10 0 6 8 20 19 31 16 17 19 18
31 4 7 -8 21 -15 32 -15 14 0 19 6 16 23 -2 12 3 27 11 33 9 7 11 16 5 25 -15
25 -13 43 8 66 12 13 18 23 13 23 -4 0 -1 8 8 18 11 12 13 22 7 32 -5 8 -10
11 -10 6 0 -6 -7 -1 -15 10 -14 19 -14 19 -15 -1 0 -15 -3 -16 -9 -7 -9 15
-60 6 -74 -12 -6 -8 -10 -7 -14 2 -2 6 -16 12 -29 12 -15 0 -24 6 -24 15 0 24
31 31 46 10 11 -15 13 -10 12 34 0 36 -4 51 -14 51 -8 0 -11 -7 -8 -17 5 -14
4 -15 -4 -4 -10 14 -52 7 -52 -10 0 -14 -40 -11 -41 4 -3 28 4 43 27 60 30 24
30 33 -1 39 -14 3 -23 1 -22 -6z m192 -316 c10 -16 -16 -43 -28 -31 -11 11 -2
41 12 41 5 0 13 -5 16 -10z m-216 -113 c14 -18 4 -27 -31 -27 -26 0 -28 2 -18
20 12 23 33 26 49 7z m41 -46 c0 -5 -7 -11 -15 -15 -15 -5 -20 5 -8 17 9 10
23 9 23 -2z m-135 -20 c3 -5 1 -12 -3 -15 -5 -3 -7 -17 -4 -32 4 -24 3 -26
-19 -18 -13 4 -35 8 -49 9 -28 2 -42 35 -15 35 8 0 18 7 21 15 7 16 59 21 69
6z"/>
<path d="M4085 910 c3 -5 8 -10 11 -10 2 0 4 5 4 10 0 6 -5 10 -11 10 -5 0 -7
-4 -4 -10z"/>
<path d="M5432 885 c0 -16 2 -22 5 -12 2 9 2 23 0 30 -3 6 -5 -1 -5 -18z"/>
<path d="M3577 748 c-37 -19 -37 -21 -21 -39 10 -12 30 -19 51 -19 31 0 33 1
19 16 -18 18 -20 30 -6 39 12 7 14 26 3 24 -5 -1 -25 -11 -46 -21z"/>
<path d="M810 726 c0 -2 8 -10 18 -17 15 -13 16 -12 3 4 -13 16 -21 21 -21 13z"/>
<path d="M3502 713 c-9 -3 -4 -10 14 -19 32 -17 41 -13 17 8 -10 9 -24 13 -31
11z"/>
<path d="M0 591 c0 -94 2 -110 15 -105 10 4 15 0 15 -15 0 -12 -6 -21 -15 -21
-12 0 -15 -14 -14 -67 0 -38 3 -62 6 -55 2 6 10 12 18 12 7 0 18 7 25 15 14
17 35 21 25 5 -3 -6 1 -7 9 -4 9 3 16 12 16 19 0 7 5 15 11 17 16 5 0 57 -22
69 -27 14 -24 29 6 29 24 0 51 31 38 44 -3 3 1 6 10 6 9 0 16 4 14 8 -1 5 12
20 28 35 l30 26 -85 39 c-143 66 -130 71 -130 -57z"/>
<path d="M4045 670 c-3 -6 1 -7 9 -4 18 7 21 14 7 14 -6 0 -13 -4 -16 -10z"/>
<path d="M876 637 c3 -10 9 -15 12 -12 3 3 0 11 -7 18 -10 9 -11 8 -5 -6z"/>
<path d="M2166 549 c19 -21 48 -26 42 -7 -3 7 -17 15 -32 19 -27 8 -28 7 -10
-12z"/>
<path d="M457 516 c19 -17 28 -34 28 -59 1 -25 -2 -34 -12 -30 -7 3 -13 0 -13
-6 0 -6 5 -11 10 -11 20 0 9 -29 -12 -32 -13 -2 -22 -9 -21 -16 2 -6 -8 -14
-22 -18 -14 -3 -25 -11 -25 -16 0 -5 -15 -8 -32 -7 -38 3 -80 -9 -90 -25 -4
-6 -8 -21 -8 -33 0 -19 -5 -23 -34 -23 -18 0 -39 7 -46 15 -15 18 -70 16 -77
-3 -3 -7 -1 -18 6 -25 16 -16 14 -40 -3 -34 -7 3 -34 9 -60 12 l-46 7 0 -106
0 -106 89 1 c84 1 89 2 100 25 15 35 14 44 -7 44 -10 0 -19 6 -19 13 0 6 -4
19 -7 28 -6 13 -2 16 18 12 19 -4 26 -1 26 10 0 9 -8 18 -17 20 -14 4 -12 5 5
6 19 1 22 -4 22 -34 0 -26 -4 -35 -17 -36 -18 -1 60 -27 110 -36 15 -3 27 -11
27 -19 0 -8 -6 -11 -15 -8 -8 4 -15 2 -15 -4 0 -18 22 -20 230 -21 175 -1 202
1 188 13 -10 7 -18 23 -18 34 0 18 -4 21 -28 16 -38 -8 -69 25 -52 55 6 12 7
21 1 21 -5 0 -9 6 -8 13 1 33 -4 47 -18 47 -19 0 -19 20 0 56 8 16 12 37 9 47
-3 9 -1 17 4 17 15 0 21 37 9 49 -8 8 -8 11 1 11 17 0 15 42 -3 66 -8 10 -15
25 -15 32 0 19 22 4 115 -73 75 -63 82 -66 118 -61 67 11 84 50 32 74 -13 6
-26 20 -30 31 -3 12 -10 21 -15 21 -35 0 -182 26 -262 46 -124 31 -137 31
-101 0z m-203 -315 c-7 -8 -35 9 -29 19 4 6 11 5 20 -3 7 -6 11 -14 9 -16z
m253 4 c8 -9 13 -18 11 -21 -3 -2 -13 5 -23 16 -21 23 -11 27 12 5z m76 -19
c1 -5 -7 -14 -18 -20 -11 -6 -24 -17 -28 -23 -11 -18 -27 -16 -27 2 0 8 7 15
16 15 10 0 14 6 11 14 -6 15 9 26 31 23 7 -1 14 -6 15 -11z m-175 -26 c37 -50
25 -80 -23 -58 -18 8 -29 8 -33 2 -14 -21 -44 -25 -59 -7 -14 17 -14 17 -8 -2
4 -14 3 -17 -5 -9 -8 8 -6 19 5 40 8 16 15 34 15 41 0 11 23 19 66 22 12 0 29
-11 42 -29z m-138 15 c0 -12 -24 -55 -32 -55 -9 0 -11 22 -2 44 5 14 34 24 34
11z"/>
<path d="M2072 518 c-7 -7 -12 -16 -12 -22 0 -5 -11 -23 -24 -41 -25 -33 -29
-66 -8 -73 7 -2 12 0 12 6 0 13 47 32 65 26 8 -4 15 -1 15 5 0 7 -10 16 -22
21 -23 9 -23 9 -1 9 12 1 23 6 25 12 2 6 25 13 52 16 34 4 44 8 33 14 -9 5
-31 3 -56 -6 -51 -18 -63 -2 -19 25 l33 20 -40 0 c-23 0 -46 -5 -53 -12z"/>
<path d="M1789 493 c-1 -5 -1 -11 0 -15 0 -5 -3 -8 -9 -8 -5 0 -10 -4 -10 -9
0 -6 11 -6 28 0 25 8 129 7 186 -3 10 -2 21 3 24 11 3 8 0 11 -7 7 -6 -4 -11
-2 -11 4 0 8 -20 10 -60 7 -34 -2 -63 0 -66 5 -6 10 -74 11 -75 1z"/>
<path d="M880 453 c0 -3 7 -14 16 -24 13 -14 20 -16 40 -7 32 15 30 24 -7 32
-40 8 -49 8 -49 -1z"/>
<path d="M1525 450 c3 -5 13 -10 21 -10 8 0 14 5 14 10 0 6 -9 10 -21 10 -11
0 -17 -4 -14 -10z"/>
<path d="M4177 432 c-24 -26 -21 -59 6 -73 12 -7 26 -18 30 -25 4 -8 21 -14
37 -14 16 0 35 -6 42 -13 7 -7 22 -17 33 -21 20 -7 20 -8 -3 -26 -12 -10 -17
-20 -11 -22 6 -2 -12 -10 -40 -19 -38 -12 -51 -13 -51 -3 0 6 -10 14 -22 18
-37 9 -44 6 -24 -9 16 -12 17 -17 6 -30 -14 -16 -34 -10 -27 9 7 17 -107 50
-130 38 -10 -5 -32 -8 -50 -6 -25 3 -33 -1 -38 -16 -3 -11 -9 -19 -13 -19 -24
4 -30 -5 -30 -45 0 -34 3 -43 16 -42 19 1 29 -31 13 -47 -7 -7 -14 -7 -24 2
-12 9 -16 8 -21 -5 -5 -13 -9 -14 -21 -4 -19 15 -45 -3 -45 -30 0 -10 -8 -21
-17 -23 -10 -3 11 -5 46 -6 51 -1 61 2 53 12 -6 7 -7 19 -3 26 6 9 10 5 15
-13 l7 -27 342 3 342 3 3 43 c2 23 7 42 13 42 5 0 9 11 9 23 0 13 9 32 20 42
11 10 20 28 20 41 0 13 5 26 10 29 33 20 -10 88 -50 78 -10 -3 -21 0 -24 6 -4
6 -1 11 6 11 10 0 9 3 -1 9 -10 7 -20 4 -32 -10 -9 -10 -20 -19 -24 -19 -5 0
-16 -7 -26 -16 -26 -23 -95 -29 -103 -8 -6 16 -8 16 -25 0 -17 -15 -18 -15
-16 6 1 13 -2 32 -8 42 -7 15 -6 22 7 31 9 7 16 16 16 20 0 4 -7 1 -16 -6 -15
-12 -16 -9 -13 34 4 40 1 47 -13 47 -10 0 -18 -3 -18 -7 0 -5 -27 -9 -60 -11
-37 -2 -60 1 -60 7 0 17 -15 13 -33 -7z m13 -279 c0 -26 -16 -47 -29 -39 -12
8 -15 39 -4 49 13 13 33 7 33 -10z m48 5 c-6 -18 -25 -20 -31 -3 -5 10 0 15
14 15 12 0 19 -5 17 -12z m246 -25 c-8 -35 -19 -47 -33 -39 -12 8 -15 49 -4
59 3 4 15 7 25 7 15 0 17 -5 12 -27z m-541 -3 c20 -24 6 -27 -17 -4 -18 17
-20 24 -8 24 4 0 15 -9 25 -20z m367 0 c0 -5 -4 -10 -10 -10 -5 0 -10 5 -10
10 0 6 5 10 10 10 6 0 10 -4 10 -10z"/>
<path d="M2175 414 c21 -16 46 -15 52 2 2 6 -12 11 -34 12 -36 1 -37 0 -18
-14z"/>
<path d="M220 300 c0 -11 4 -20 9 -20 5 0 7 9 4 20 -3 11 -7 20 -9 20 -2 0 -4
-9 -4 -20z"/>
<path d="M1856 307 c-27 -20 -10 -44 35 -49 35 -3 38 -2 33 17 -6 19 -31 45
-44 45 -3 0 -14 -6 -24 -13z"/>
<path d="M1335 270 c-8 -13 3 -30 20 -30 8 0 11 7 8 20 -6 22 -18 26 -28 10z"/>
<path d="M2262 256 c5 -30 32 -42 63 -28 26 12 27 13 10 32 -23 26 -77 23 -73
-4z"/>
<path d="M5208 263 c6 -2 18 -2 25 0 6 3 1 5 -13 5 -14 0 -19 -2 -12 -5z"/>
<path d="M5292 188 c-18 -18 -15 -25 18 -31 18 -4 30 -13 30 -22 0 -8 7 -15
15 -15 8 0 15 -5 15 -11 0 -5 5 -7 12 -3 7 5 9 2 5 -9 -3 -9 -1 -17 5 -19 6
-2 8 -10 4 -16 -4 -7 -16 -10 -26 -7 -11 3 -20 0 -24 -10 -4 -11 -13 -14 -26
-10 -15 5 -18 3 -14 -9 5 -12 2 -15 -12 -9 -11 4 -15 3 -11 -4 4 -6 40 -11 82
-12 l75 -2 0 61 c0 41 -4 60 -12 60 -8 0 -9 3 -3 8 15 11 17 42 3 43 -29 1
-51 8 -61 18 -15 15 -60 14 -75 -1z"/>
<path d="M4911 96 c-13 -14 -18 -26 -13 -30 6 -3 13 0 15 6 3 8 6 6 6 -4 1
-11 9 -18 20 -18 11 0 21 -8 23 -18 3 -13 7 -10 19 13 18 36 14 55 -10 55 -9
0 -22 5 -27 10 -7 7 -18 2 -33 -14z"/>
<path d="M4995 10 c8 -13 72 -13 80 0 4 6 -12 10 -40 10 -28 0 -44 -4 -40 -10z"/>
<path d="M5160 10 c-11 -7 0 -10 38 -10 28 0 52 5 52 10 0 13 -70 13 -90 0z"/>
<path d="M3658 3 c7 -3 16 -2 19 1 4 3 -2 6 -13 5 -11 0 -14 -3 -6 -6z"/>
<path d="M3713 3 c9 -2 23 -2 30 0 6 3 -1 5 -18 5 -16 0 -22 -2 -12 -5z"/>
</g>
</svg>
